<?xml version="1.0" encoding="utf-8"?>
<!-- Generator: Adobe Illustrator 26.3.1, SVG Export Plug-In . SVG Version: 6.00 Build 0)  -->
<svg version="1.1" id="Layer_1" xmlns="http://www.w3.org/2000/svg" xmlns:xlink="http://www.w3.org/1999/xlink" x="0px" y="0px"
	 viewBox="0 0 700 700" style="enable-background:new 0 0 700 700;" xml:space="preserve">
<style type="text/css">
	.st0{fill:#9CD9D7;}
</style>
<g>
	<path class="st0" d="M574.2,338.3c0-57.6-46.9-104.5-104.5-104.5h-16.2V131.6c0-3.1-2.5-5.6-5.6-5.6H131.4c-3.1,0-5.6,2.5-5.6,5.6
		V517c0,3.1,2.5,5.6,5.6,5.6h24.7c2.7,28.8,27,51.4,56.4,51.4s53.8-22.6,56.4-51.4h159c2.7,28.8,27,51.4,56.4,51.4
		c29.5,0,53.8-22.6,56.4-51.4h27.8c3.1,0,5.6-2.5,5.6-5.6L574.2,338.3z M212.5,562.8c-25.1,0-45.5-20.4-45.5-45.5
		c0-25.1,20.4-45.5,45.5-45.5s45.5,20.4,45.5,45.5C258,542.4,237.6,562.8,212.5,562.8z M484.4,562.8c-25.1,0-45.5-20.4-45.5-45.5
		c0-25.1,20.4-45.5,45.5-45.5s45.5,20.4,45.5,45.5C529.9,542.4,509.5,562.8,484.4,562.8L484.4,562.8z M563,511.4h-22.2
		c-3-28.5-27.1-50.8-56.4-50.8c-29.3,0-53.4,22.3-56.4,50.8H268.9c-3-28.5-27.1-50.8-56.4-50.8s-53.4,22.3-56.4,50.8H137V137.2
		h305.4v102.2c0,3.1,2.5,5.6,5.6,5.6h21.8c51.5,0,93.3,41.9,93.3,93.3L563,511.4z"/>
	<path class="st0" d="M462.8,265.6h-15.2c-3.1,0-5.6,2.5-5.6,5.6v93.1c0,3.1,2.5,5.6,5.6,5.6H532c3.1,0,5.6-2.5,5.6-5.6v-23.9
		C537.6,299.2,504,265.6,462.8,265.6L462.8,265.6z M526.4,358.7h-73.2v-81.9h9.6c35.1,0,63.6,28.5,63.6,63.6L526.4,358.7
		L526.4,358.7z"/>
	<path class="st0" d="M304.4,294.2v-69.1c16.6,2.7,29.2,17,29.2,34.2c0,3.1,2.5,5.6,5.6,5.6c3.1,0,5.6-2.5,5.6-5.6
		c0-23.4-17.7-42.8-40.4-45.5l0-12.3c0-3.1-2.5-5.6-5.6-5.6c-3.1,0-5.6,2.5-5.6,5.6v12.3c-22.8,2.8-40.4,22.1-40.4,45.5
		s17.7,42.8,40.4,45.5v69c-15.7-3.3-27.6-17.3-27.6-33.9c0-3.1-2.5-5.6-5.6-5.6c-3.1,0-5.6,2.5-5.6,5.6c0,22.8,16.9,41.8,38.8,45.3
		v12.6c0,3.1,2.5,5.6,5.6,5.6c3.1,0,5.6-2.5,5.6-5.6v-12.1c23.5-2,42.1-21.7,42.1-45.7C346.5,315.9,327.9,296.2,304.4,294.2
		L304.4,294.2z M264,259.3c0-17.2,12.7-31.5,29.2-34.2v68.4C276.7,290.8,264,276.5,264,259.3z M304.4,374.4v-68.9
		c17.4,2,30.9,16.7,30.9,34.5S321.8,372.4,304.4,374.4z"/>
</g>
</svg>
