<?xml version="1.0" encoding="utf-8"?>
<!-- Generator: Adobe Illustrator 26.3.1, SVG Export Plug-In . SVG Version: 6.00 Build 0)  -->
<svg version="1.1" id="Layer_1" xmlns="http://www.w3.org/2000/svg" xmlns:xlink="http://www.w3.org/1999/xlink" x="0px" y="0px"
	 viewBox="0 0 700 700" style="enable-background:new 0 0 700 700;" xml:space="preserve">
<style type="text/css">
	.st0{fill:#9CD9D7;}
</style>
<g>
	<path class="st0" d="M533.4,289.7L514,165.5c-2.2-13.8-12.4-24.7-26.1-27.7C463,132.5,418.9,126,350,126s-113,6.5-137.8,11.9
		c-13.7,3-24,13.8-26.1,27.7l-19.4,124.2l-29.4,55.2c-7.3,13.7-11.2,29.2-11.2,44.8v98.2c0,3.1,2.5,5.6,5.6,5.6h15.9v42.4
		c0,21.1,17.1,38.2,38.2,38.2s38.2-17.1,38.2-38.2v-42.4h252.2v42.4c0,21.1,17.1,38.2,38.2,38.2c21.1,0,38.2-17.1,38.2-38.2v-42.4
		h15.9c3.1,0,5.6-2.5,5.6-5.6v-98.2c0-15.6-3.9-31-11.2-44.8L533.4,289.7z M197.1,167.3c1.4-9.2,8.3-16.4,17.4-18.4
		c24.3-5.3,67.5-11.6,135.4-11.6s111.2,6.3,135.4,11.6c9.2,2,16,9.2,17.4,18.4l18.6,118.6h-46v-0.5c0-28.9-23.5-52.4-52.4-52.4
		c-28.9,0-52.4,23.5-52.4,52.4v0.5H178.5L197.1,167.3z M464.2,285.4v0.5h-82.3v-0.5c0-22.7,18.5-41.2,41.2-41.2
		C445.8,244.2,464.2,262.7,464.2,285.4z M137.2,389.7c0-3.2,0.2-6.5,0.6-9.7H179c21.6,0,39.2,17.6,39.2,39.2v9.7h-81L137.2,389.7z
		 M212.7,535.8c0,14.9-12.1,27-27,27s-27-12.1-27-27v-42.4h54L212.7,535.8z M541.3,535.8c0,14.9-12.1,27-27,27
		c-14.9,0-27-12.1-27-27v-42.4h54L541.3,535.8L541.3,535.8z M562.8,482.3H137.2v-42.2h86.6c3.1,0,5.6-2.5,5.6-5.6v-15.3
		c0-27.8-22.6-50.4-50.4-50.4h-39.1c1.7-6.5,4.1-12.7,7.2-18.6l28.3-53h349.3l28.3,53.1c3.1,5.9,5.6,12.2,7.2,18.6H521
		c-27.8,0-50.4,22.6-50.4,50.4v15.3c0,3.1,2.5,5.6,5.6,5.6l86.6,0L562.8,482.3z M562.8,428.9h-81v-9.7c0-21.6,17.6-39.2,39.2-39.2
		h41.2c0.4,3.2,0.6,6.4,0.6,9.7L562.8,428.9z"/>
	<path class="st0" d="M411.8,379.3H288.2c-3.1,0-5.6,2.5-5.6,5.6v49.6c0,3.1,2.5,5.6,5.6,5.6h123.5c3.1,0,5.6-2.5,5.6-5.6v-49.6
		C417.4,381.8,414.9,379.3,411.8,379.3L411.8,379.3z M406.2,428.9H293.8v-38.4h112.3V428.9z"/>
</g>
</svg>
