<svg xmlns="http://www.w3.org/2000/svg" width="15.4mm" height="14mm" viewBox="0 0 43.65 39.68">
  <g>
    <path d="M28.57,23.51a7.2,7.2,0,0,0-.51-1.73,8.5,8.5,0,0,0-3.43-4,7.69,7.69,0,0,0-8,.05,6.93,6.93,0,0,0-2.62,2.8,8.8,8.8,0,0,0-.5,1.23,8.63,8.63,0,0,0,.55,6.72A3.36,3.36,0,0,0,15.7,30a2.34,2.34,0,0,0,2.08-.16,2.2,2.2,0,0,0,.78-2.33,6.08,6.08,0,0,1,.08-3.25,2.4,2.4,0,0,1,.58-.92,2.08,2.08,0,0,1,.55-.38,2.24,2.24,0,0,1,1.37-.22A2.62,2.62,0,0,1,23,24.25a6.15,6.15,0,0,1,.5,2.41,36.11,36.11,0,0,1-1.6,10.76c-.09.36-.19.72-.29,1.06s-.22.63-.05.89a.87.87,0,0,0,.32.25,1.24,1.24,0,0,0,1.33-.47,19.23,19.23,0,0,0,4.38-7.67,25.54,25.54,0,0,0,.84-3.2,14.09,14.09,0,0,0,.16-4.77" style="fill: #009591"/>
    <path d="M43.65,6.91a.91.91,0,0,0-1-.88,4.91,4.91,0,0,0-1.48.47C31.92,10,21.46,10.7,11.7,9.29c-1.67-.24-3.36-.58-5-.84C5.61,8.28,4.57,8,3.51,8a3.83,3.83,0,0,0-2.76.53A2.91,2.91,0,0,0,.4,12a7.72,7.72,0,0,0,3,2.89,7.17,7.17,0,0,0,3.93,1.34q5.6-.35,11.16-1.08c6.33-.82,13-1.59,18.9-4A23.74,23.74,0,0,0,42.91,8c.31-.23.74-.61.74-1" style="fill: #009591"/>
    <path d="M17.08,3.74a3.65,3.65,0,0,0,7.29,0,2.22,2.22,0,0,0-.2-.88c-.31-.66-.67-1-.63-1.78C23.59,0,22.21,0,21.47,0a5.29,5.29,0,0,0-2.38.48,3.78,3.78,0,0,0-1.44,1.28,3.61,3.61,0,0,0-.57,1.89v.09" style="fill: #ed1651"/>
  </g>
</svg>
