<?xml version="1.0" encoding="UTF-8"?>
<svg id="b" data-name="Layer 2" xmlns="http://www.w3.org/2000/svg" width="1116.69" height="1116.69" viewBox="0 0 1116.69 1116.69">
  <g id="c" data-name="Layer 3">
    <g>
      <rect x="163.53" y="163.53" width="789.62" height="789.62" transform="translate(558.34 -231.27) rotate(45)" style="fill: #009591;"/>
      <g>
        <path d="M389.13,560.56c69.58,0,126.16-56.59,126.16-126.16s-56.58-126.17-126.16-126.17-126.14,56.6-126.14,126.17,56.58,126.16,126.14,126.16Zm0-199.78c40.59,0,73.63,33.02,73.63,73.62s-33.05,73.61-73.63,73.61-73.61-33.02-73.61-73.61,33.02-73.62,73.61-73.62Z" style="fill: #fff;"/>
        <path d="M682.67,853.32c69.58,0,126.16-56.59,126.16-126.16s-56.58-126.17-126.16-126.17-126.14,56.6-126.14,126.17,56.58,126.16,126.14,126.16Zm0-199.78c40.59,0,73.63,33.02,73.63,73.62s-33.05,73.61-73.63,73.61-73.61-33.02-73.61-73.61,33.02-73.62,73.61-73.62Z" style="fill: #fff;"/>
        <polygon points="806.21 508.01 611.68 508.01 611.68 360.78 763.06 360.78 806.21 308.23 559.15 308.23 559.15 560.56 806.21 560.56 806.21 508.01" style="fill: #fff;"/>
        <polygon points="460.14 840.18 512.67 840.18 512.67 614.13 265.61 614.13 308.76 666.67 460.14 666.67 460.14 840.18" style="fill: #fff;"/>
      </g>
    </g>
  </g>
</svg>