<?xml version="1.0" encoding="utf-8"?>
<!-- Generator: Adobe Illustrator 26.3.1, SVG Export Plug-In . SVG Version: 6.00 Build 0)  -->
<svg version="1.1" id="Layer_1" xmlns="http://www.w3.org/2000/svg" xmlns:xlink="http://www.w3.org/1999/xlink" x="0px" y="0px"
	 viewBox="0 0 700 700" style="enable-background:new 0 0 700 700;" xml:space="preserve">
<style type="text/css">
	.st0{fill:#9CD9D7;}
</style>
<g>
	<path class="st0" d="M349.5,353.9h0.9c9.6,0,17.4,7.8,17.4,17.3s-7.8,17.3-17.4,17.3s-17.4-7.8-17.4-17.3c0-3.1-2.5-5.6-5.6-5.6
		s-5.6,2.5-5.6,5.6c0,13.5,9.5,24.8,22.1,27.7v5.2c0,3.1,2.5,5.6,5.6,5.6s5.6-2.5,5.6-5.6l0-4.8c13.6-2.2,24-13.9,24-28.1
		c0-15.7-12.8-28.5-28.6-28.5h-0.9c-9.6,0-17.4-7.8-17.4-17.3c0-9.6,7.8-17.3,17.4-17.3s17.4,7.8,17.4,17.3c0,3.1,2.5,5.6,5.6,5.6
		s5.6-2.5,5.6-5.6c0-13.8-9.9-25.4-23-28v-4.9c0-3.1-2.5-5.6-5.6-5.6s-5.6,2.5-5.6,5.6v4.9c-13.1,2.6-23,14.1-23,28
		C320.9,341.1,333.7,353.9,349.5,353.9L349.5,353.9z"/>
	<path class="st0" d="M350,439.1c49.2,0,89.2-40,89.2-89.2s-40-89.2-89.2-89.2s-89.2,40-89.2,89.2S300.8,439.1,350,439.1z
		 M350,271.9c43,0,78,35,78,78c0,43-35,78-78,78s-78-35-78-78S307,271.9,350,271.9L350,271.9z"/>
	<path class="st0" d="M131.6,488.2h103.8c-2.9,2.2-5.8,4.3-9.1,6.1l-19.4,10.6c-1.8,1-2.9,2.9-2.9,4.9s1.1,3.9,2.9,4.9l19.4,10.6
		c11.1,6.1,20.1,15.1,26.2,26.2l10.6,19.4c1,1.8,2.9,2.9,4.9,2.9s3.9-1.1,4.9-2.9l10.6-19.4c6.1-11.1,15.1-20.1,26.2-26.2l19.4-10.6
		c1.8-1,2.9-2.9,2.9-4.9s-1.1-3.9-2.9-4.9l-19.4-10.6c-3.2-1.8-6.2-3.8-9.1-6.1h267.7c3.1,0,5.6-2.5,5.6-5.6V217.2
		c0-3.1-2.5-5.6-5.6-5.6l-102.1,0c2.9-2.2,5.8-4.3,9.1-6.1l19.4-10.6c1.8-1,2.9-2.9,2.9-4.9c0-2-1.1-3.9-2.9-4.9l-19.4-10.6
		c-11.1-6.1-20.1-15.1-26.2-26.2l-10.6-19.4c-2-3.6-7.9-3.6-9.8,0l-10.6,19.4c-6.1,11.1-15.1,20.1-26.2,26.2L372.5,185
		c-1.8,1-2.9,2.9-2.9,4.9c0,2,1.1,3.9,2.9,4.9l19.4,10.6c3.2,1.8,6.2,3.8,9.1,6.1H131.6c-3.1,0-5.6,2.5-5.6,5.6v265.4
		C126,485.7,128.5,488.2,131.6,488.2L131.6,488.2z M418.1,231.7l10.6,19.4c1,1.8,2.9,2.9,4.9,2.9s3.9-1.1,4.9-2.9l10.6-19.4
		c1.7-3.2,3.8-6.1,6-8.9h43c2.8,33.9,30.5,60.8,64.7,62.3v129.6c-34.2,1.6-61.9,28.4-64.7,62.3H289.5c-2.2-2.8-4.2-5.8-6-8.9
		l-10.6-19.4c-1-1.8-2.9-2.9-4.9-2.9s-3.9,1.1-4.9,2.9l-10.6,19.4c-1.7,3.2-3.8,6.1-6,8.9h-46.1c-2.7-33.4-29.7-60-63.3-62.3V285
		c33.6-2.2,60.5-28.8,63.3-62.3h211.6C414.3,225.6,416.4,228.5,418.1,231.7L418.1,231.7z M137.2,425.9c27.4,2.2,49.4,23.8,52.1,51.1
		h-52.1V425.9z M314.8,509.8l-10.4,5.7c-13,7.1-23.6,17.7-30.7,30.7l-5.7,10.4l-5.7-10.4c-7.1-13-17.7-23.6-30.7-30.7l-10.4-5.7
		l10.4-5.7c13-7.1,23.6-17.7,30.7-30.7L268,463l5.7,10.4c7.1,13,17.7,23.6,30.7,30.7L314.8,509.8z M509.3,477
		c2.7-27.7,25.4-49.6,53.5-51.1V477H509.3z M562.8,273.9c-28-1.5-50.7-23.4-53.5-51.1h53.5V273.9z M386.8,190l10.4-5.7
		c13-7.1,23.6-17.7,30.7-30.7l5.7-10.4l5.7,10.4c7.1,13,17.7,23.6,30.7,30.7l10.4,5.7l-10.4,5.7c-13,7.1-23.6,17.7-30.7,30.7
		l-5.7,10.4l-5.7-10.4c-7.1-13-17.7-23.6-30.7-30.7L386.8,190z M189.3,222.8c-2.7,27.3-24.7,48.9-52.1,51.1v-51.1H189.3z"/>
</g>
</svg>
