<?xml version="1.0" encoding="utf-8"?>
<!-- Generator: Adobe Illustrator 26.3.1, SVG Export Plug-In . SVG Version: 6.00 Build 0)  -->
<svg version="1.1" id="Layer_1" xmlns="http://www.w3.org/2000/svg" xmlns:xlink="http://www.w3.org/1999/xlink" x="0px" y="0px"
	 viewBox="0 0 700 700" style="enable-background:new 0 0 700 700;" xml:space="preserve">
<style type="text/css">
	.st0{fill:#9CD9D7;}
</style>
<g>
	<path class="st0" d="M168.7,495.7c5,27.9,22.1,49.4,50.8,63.7c19.2,9.6,41,14.5,64.7,14.5h131.7c23.7,0,45.5-4.9,64.7-14.5
		c28.6-14.4,45.7-35.8,50.8-63.7c14.8-82-78.6-195-104.1-224c8.7-4.1,14.8-13,14.8-23.2c0-12.7-9.3-23.2-21.4-25.3
		c9.9-11.7,24.7-33.1,24.7-58.1c0-3.1-2.5-5.6-5.6-5.6h-27.1c1.9-9.4,2.7-19.1,1.3-28.7c-0.4-2.8-2.7-4.8-5.5-4.8H291.7
		c-2.8,0-5.2,2.1-5.5,4.8c-1.3,9.6-0.6,19.3,1.3,28.7h-27.1c-3.1,0-5.6,2.5-5.6,5.6c0,25,14.7,46.4,24.7,58.1
		c-12.1,2.1-21.4,12.6-21.4,25.3c0,10.3,6.1,19.1,14.8,23.2C247.3,300.7,153.9,413.8,168.7,495.7L168.7,495.7z M433.8,170.7
		c-2.7,25.3-22.4,46.5-28,52h-23.9c8.2-10.8,20.8-30,27.8-52H433.8z M296.7,137.2h106.5c2.2,37.3-28.4,76.8-35.7,85.6h-35.2
		C325.1,213.9,294.5,174.5,296.7,137.2L296.7,137.2z M290.4,170.7c6.9,22,19.6,41.2,27.8,52h-23.9c-5.6-5.5-25.3-26.8-28-52H290.4z
		 M283.7,234h132.5c8,0,14.6,6.5,14.6,14.6c0,8-6.5,14.6-14.6,14.6l-132.5,0c-8,0-14.6-6.5-14.6-14.6
		C269.2,240.5,275.7,234,283.7,234L283.7,234z M285.5,274.3h129C429,290.5,535,412,520.3,493.7c-4.4,24.3-19.4,43-44.8,55.7
		c-17.6,8.8-37.7,13.3-59.6,13.3H284.1c-22,0-42-4.5-59.6-13.3c-25.3-12.7-40.4-31.4-44.8-55.7C165,412,271,290.5,285.5,274.3
		L285.5,274.3z"/>
	<path class="st0" d="M349.3,422.8h1.3c14.7,0,26.7,11.9,26.7,26.6c0,14.7-12,26.6-26.7,26.6S324,464,324,449.4
		c0-3.1-2.5-5.6-5.6-5.6s-5.6,2.5-5.6,5.6c0,18.5,13.4,33.9,31,37.1v9.1c0,3.1,2.5,5.6,5.6,5.6s5.6-2.5,5.6-5.6v-8.6
		c18.9-2.1,33.6-18.1,33.6-37.5c0-20.8-17-37.8-37.9-37.8h-1.3c-14.7,0-26.7-11.9-26.7-26.6c0-14.7,12-26.6,26.7-26.6
		S376,370.4,376,385c0,3.1,2.5,5.6,5.6,5.6s5.6-2.5,5.6-5.6c0-18.9-14-34.6-32.3-37.3v-8.8c0-3.1-2.5-5.6-5.6-5.6s-5.6,2.5-5.6,5.6
		v8.8c-18.2,2.7-32.3,18.4-32.3,37.3C311.5,405.9,328.5,422.8,349.3,422.8L349.3,422.8z"/>
</g>
</svg>
