<?xml version="1.0" encoding="utf-8"?>
<!-- Generator: Adobe Illustrator 26.3.1, SVG Export Plug-In . SVG Version: 6.00 Build 0)  -->
<svg version="1.1" id="Layer_1" xmlns="http://www.w3.org/2000/svg" xmlns:xlink="http://www.w3.org/1999/xlink" x="0px" y="0px"
	 viewBox="0 0 700 700" style="enable-background:new 0 0 700 700;" xml:space="preserve">
<style type="text/css">
	.st0{fill:#9CD9D7;}
</style>
<g>
	<path class="st0" d="M564.2,560h-24.1v-30.8c10.6-2.8,19-12.3,19-23.5v-31.4c0-13.4-11.2-24.6-24.6-24.6
		c-13.4,0-24.6,11.2-24.6,24.6v31.4c0,11.8,7.8,21.3,19,23.5V560h-47v-16.8c10.6-2.8,19-12.3,19-23.5v-14.6
		c0-13.4-11.2-24.6-24.6-24.6c-13.4,0-24.6,11.2-24.6,24.6v14.6c0,11.8,7.8,21.3,19,23.5V560h-38.1V203.8h5c3.4,0,5.6-2.2,5.6-5.6
		v-37.5c0-3.4-2.2-5.6-5.6-5.6h-5V135c0-3.4-2.2-5.6-5.6-5.6l-131,0c-3.4,0-5.6,2.2-5.6,5.6v20.2h-5c-3.4,0-5.6,2.2-5.6,5.6v37.5
		c0,3.4,2.2,5.6,5.6,5.6h5.6v16.8l-75.6,0v-19c0-3.4-2.2-5.6-5.6-5.6h-26.9c-3.4,0-5.6,2.2-5.6,5.6v19h-21.8c-3.4,0-5.6,2.2-5.6,5.6
		v37.5c0,3.4,2.2,5.6,5.6,5.6h5v290.1h-24.1c-3.4,0-5.6,2.2-5.6,5.6c0,3.4,2.2,5.6,5.6,5.6h427.3c3.4,0,5.6-2.2,5.6-5.6
		C569.2,561.7,567,560,564.2,560L564.2,560z M301.6,140h119.3v14.6H301.6V140z M188.4,207.2h15.7v13.4h-15.7V207.2z M291.5,560
		H171.6V269.4h119.3V560H291.5z M301.6,258.2h-140v-26.3h140.6v26.3H301.6z M420.8,560H302.7V269.4h5c3.4,0,5.6-2.2,5.6-5.6v-37.5
		c0-3.4-2.2-5.6-5.6-5.6h-5v-16.8h118.7l0,356.2L420.8,560z M431.5,192.6H290.9v-26.3h140.6V192.6z M462.8,519.1v-14.6
		c0-7.3,6.2-13.4,13.4-13.4s13.4,6.2,13.4,13.4v14.6c0,7.3-6.2,13.4-13.4,13.4S462.8,526.4,462.8,519.1z M521.1,505.7v-31.4
		c0-7.3,6.2-13.4,13.4-13.4S548,467,548,474.3v31.4c0,7.3-6.2,13.4-13.4,13.4C527.3,519.1,521.1,513,521.1,505.7z"/>
	<path class="st0" d="M326.8,335.4c3.4,0,5.6-2.2,5.6-5.6v-25.2c0-3.4-2.2-5.6-5.6-5.6c-3.4,0-5.6,2.2-5.6,5.6v25.2
		C321.2,332.6,324,335.4,326.8,335.4L326.8,335.4z"/>
	<path class="st0" d="M362,335.4c3.4,0,5.6-2.2,5.6-5.6v-25.2c0-3.4-2.2-5.6-5.6-5.6c-3.4,0-5.6,2.2-5.6,5.6v25.2
		C356.4,332.6,359.2,335.4,362,335.4L362,335.4z"/>
	<path class="st0" d="M397.3,335.4c3.4,0,5.6-2.2,5.6-5.6v-25.2c0-3.4-2.2-5.6-5.6-5.6c-3.4,0-5.6,2.2-5.6,5.6l0,25.2
		C391.7,332.6,394.5,335.4,397.3,335.4L397.3,335.4z"/>
	<path class="st0" d="M326.8,401.5c3.4,0,5.6-2.2,5.6-5.6v-25.2c0-3.4-2.2-5.6-5.6-5.6c-3.4,0-5.6,2.2-5.6,5.6v25.2
		C321.2,398.7,324,401.5,326.8,401.5z"/>
	<path class="st0" d="M362,401.5c3.4,0,5.6-2.2,5.6-5.6v-25.2c0-3.4-2.2-5.6-5.6-5.6c-3.4,0-5.6,2.2-5.6,5.6v25.2
		C356.4,398.7,359.2,401.5,362,401.5z"/>
	<path class="st0" d="M397.3,401.5c3.4,0,5.6-2.2,5.6-5.6v-25.2c0-3.4-2.2-5.6-5.6-5.6c-3.4,0-5.6,2.2-5.6,5.6v25.2
		C391.7,398.7,394.5,401.5,397.3,401.5z"/>
	<path class="st0" d="M326.8,269.4c3.4,0,5.6-2.2,5.6-5.6v-25.2c0-3.4-2.2-5.6-5.6-5.6c-3.4,0-5.6,2.2-5.6,5.6v25.2
		C321.2,267.1,324,269.4,326.8,269.4z"/>
	<path class="st0" d="M362,269.4c3.4,0,5.6-2.2,5.6-5.6v-25.2c0-3.4-2.2-5.6-5.6-5.6c-3.4,0-5.6,2.2-5.6,5.6v25.2
		C356.4,267.1,359.2,269.4,362,269.4z"/>
	<path class="st0" d="M397.3,269.4c3.4,0,5.6-2.2,5.6-5.6v-25.2c0-3.4-2.2-5.6-5.6-5.6c-3.4,0-5.6,2.2-5.6,5.6v25.2
		C391.7,267.1,394.5,269.4,397.3,269.4z"/>
	<path class="st0" d="M326.8,467.6c3.4,0,5.6-2.2,5.6-5.6v-25.2c0-3.4-2.2-5.6-5.6-5.6c-3.4,0-5.6,2.2-5.6,5.6V462
		C321.2,464.8,324,467.6,326.8,467.6z"/>
	<path class="st0" d="M362,467.6c3.4,0,5.6-2.2,5.6-5.6v-25.2c0-3.4-2.2-5.6-5.6-5.6c-3.4,0-5.6,2.2-5.6,5.6V462
		C356.4,464.8,359.2,467.6,362,467.6z"/>
	<path class="st0" d="M397.3,467.6c3.4,0,5.6-2.2,5.6-5.6v-25.2c0-3.4-2.2-5.6-5.6-5.6c-3.4,0-5.6,2.2-5.6,5.6V462
		C391.7,464.8,394.5,467.6,397.3,467.6z"/>
	<path class="st0" d="M326.8,533.7c3.4,0,5.6-2.2,5.6-5.6v-25.2c0-3.4-2.2-5.6-5.6-5.6c-3.4,0-5.6,2.2-5.6,5.6v25.2
		C321.2,530.9,324,533.7,326.8,533.7z"/>
	<path class="st0" d="M362,533.7c3.4,0,5.6-2.2,5.6-5.6v-25.2c0-3.4-2.2-5.6-5.6-5.6c-3.4,0-5.6,2.2-5.6,5.6v25.2
		C356.4,530.9,359.2,533.7,362,533.7z"/>
	<path class="st0" d="M397.3,533.7c3.4,0,5.6-2.2,5.6-5.6v-25.2c0-3.4-2.2-5.6-5.6-5.6c-3.4,0-5.6,2.2-5.6,5.6v25.2
		C391.7,530.9,394.5,533.7,397.3,533.7z"/>
	<path class="st0" d="M196.3,335.4c3.4,0,5.6-2.2,5.6-5.6v-25.2c0-3.4-2.2-5.6-5.6-5.6c-3.4,0-5.6,2.2-5.6,5.6v25.2
		C190.7,332.6,193.5,335.4,196.3,335.4L196.3,335.4z"/>
	<path class="st0" d="M231.6,335.4c3.4,0,5.6-2.2,5.6-5.6v-25.2c0-3.4-2.2-5.6-5.6-5.6c-3.4,0-5.6,2.2-5.6,5.6v25.2
		C226,332.6,228.8,335.4,231.6,335.4L231.6,335.4z"/>
	<path class="st0" d="M266.8,335.4c3.4,0,5.6-2.2,5.6-5.6v-25.2c0-3.4-2.2-5.6-5.6-5.6c-3.4,0-5.6,2.2-5.6,5.6l0,25.2
		C261.2,332.6,263.5,335.4,266.8,335.4L266.8,335.4z"/>
	<path class="st0" d="M196.3,401.5c3.4,0,5.6-2.2,5.6-5.6v-25.2c0-3.4-2.2-5.6-5.6-5.6c-3.4,0-5.6,2.2-5.6,5.6v25.2
		C190.7,398.7,193.5,401.5,196.3,401.5z"/>
	<path class="st0" d="M231.6,401.5c3.4,0,5.6-2.2,5.6-5.6v-25.2c0-3.4-2.2-5.6-5.6-5.6c-3.4,0-5.6,2.2-5.6,5.6v25.2
		C226,398.7,228.8,401.5,231.6,401.5z"/>
	<path class="st0" d="M266.8,401.5c3.4,0,5.6-2.2,5.6-5.6v-25.2c0-3.4-2.2-5.6-5.6-5.6c-3.4,0-5.6,2.2-5.6,5.6v25.2
		C261.2,398.7,263.5,401.5,266.8,401.5z"/>
	<path class="st0" d="M196.3,467.6c3.4,0,5.6-2.2,5.6-5.6v-25.2c0-3.4-2.2-5.6-5.6-5.6c-3.4,0-5.6,2.2-5.6,5.6V462
		C190.7,464.8,193.5,467.6,196.3,467.6z"/>
	<path class="st0" d="M231.6,467.6c3.4,0,5.6-2.2,5.6-5.6v-25.2c0-3.4-2.2-5.6-5.6-5.6c-3.4,0-5.6,2.2-5.6,5.6V462
		C226,464.8,228.8,467.6,231.6,467.6z"/>
	<path class="st0" d="M266.8,467.6c3.4,0,5.6-2.2,5.6-5.6v-25.2c0-3.4-2.2-5.6-5.6-5.6c-3.4,0-5.6,2.2-5.6,5.6V462
		C261.2,464.8,263.5,467.6,266.8,467.6z"/>
	<path class="st0" d="M196.3,533.7c3.4,0,5.6-2.2,5.6-5.6v-25.2c0-3.4-2.2-5.6-5.6-5.6c-3.4,0-5.6,2.2-5.6,5.6v25.2
		C190.7,530.9,193.5,533.7,196.3,533.7z"/>
	<path class="st0" d="M231.6,533.7c3.4,0,5.6-2.2,5.6-5.6v-25.2c0-3.4-2.2-5.6-5.6-5.6c-3.4,0-5.6,2.2-5.6,5.6v25.2
		C226,530.9,228.8,533.7,231.6,533.7z"/>
	<path class="st0" d="M266.8,533.7c3.4,0,5.6-2.2,5.6-5.6v-25.2c0-3.4-2.2-5.6-5.6-5.6c-3.4,0-5.6,2.2-5.6,5.6v25.2
		C261.2,530.9,263.5,533.7,266.8,533.7z"/>
</g>
</svg>
