<?xml version="1.0" encoding="utf-8"?>
<!-- Generator: Adobe Illustrator 26.3.1, SVG Export Plug-In . SVG Version: 6.00 Build 0)  -->
<svg version="1.1" id="Layer_1" xmlns="http://www.w3.org/2000/svg" xmlns:xlink="http://www.w3.org/1999/xlink" x="0px" y="0px"
	 viewBox="0 0 700 700" style="enable-background:new 0 0 700 700;" xml:space="preserve">
<style type="text/css">
	.st0{fill:#9CD9D7;}
</style>
<g>
	<path class="st0" d="M421.4,401.7h23.8c3.1,0,5.6-2.5,5.6-5.6v-37.1c0-3.1-2.5-5.6-5.6-5.6h-23.8c-3.1,0-5.6,2.5-5.6,5.6v37.1
		C415.8,399.2,418.3,401.7,421.4,401.7z M427,364.7h12.6v25.9H427V364.7z"/>
	<path class="st0" d="M421.4,335.3h23.8c3.1,0,5.6-2.5,5.6-5.6v-37.1c0-3.1-2.5-5.6-5.6-5.6h-23.8c-3.1,0-5.6,2.5-5.6,5.6v37.1
		C415.8,332.7,418.3,335.3,421.4,335.3z M427,298.2h12.6v25.9H427V298.2z"/>
	<path class="st0" d="M366.1,401.7h23.8c3.1,0,5.6-2.5,5.6-5.6v-37.1c0-3.1-2.5-5.6-5.6-5.6h-23.8c-3.1,0-5.6,2.5-5.6,5.6v37.1
		C360.5,399.2,363,401.7,366.1,401.7z M371.7,364.7h12.6v25.9h-12.6V364.7z"/>
	<path class="st0" d="M366.1,335.3h23.8c3.1,0,5.6-2.5,5.6-5.6v-37.1c0-3.1-2.5-5.6-5.6-5.6h-23.8c-3.1,0-5.6,2.5-5.6,5.6v37.1
		C360.5,332.7,363,335.3,366.1,335.3z M371.7,298.2h12.6v25.9h-12.6V298.2z"/>
	<path class="st0" d="M334.6,353.5h-23.8c-3.1,0-5.6,2.5-5.6,5.6v37.1c0,3.1,2.5,5.6,5.6,5.6h23.8c3.1,0,5.6-2.5,5.6-5.6v-37.1
		C340.2,356,337.7,353.5,334.6,353.5z M329,390.5h-12.6v-25.9H329V390.5z"/>
	<path class="st0" d="M334.6,287h-23.8c-3.1,0-5.6,2.5-5.6,5.6v37.1c0,3.1,2.5,5.6,5.6,5.6h23.8c3.1,0,5.6-2.5,5.6-5.6v-37.1
		C340.2,289.5,337.7,287,334.6,287z M329,324.1h-12.6v-25.9H329V324.1z"/>
	<path class="st0" d="M279.3,353.5h-23.8c-3.1,0-5.6,2.5-5.6,5.6v37.1c0,3.1,2.5,5.6,5.6,5.6h23.8c3.1,0,5.6-2.5,5.6-5.6v-37.1
		C284.9,356,282.4,353.5,279.3,353.5z M273.7,390.5H261v-25.9h12.6V390.5z"/>
	<path class="st0" d="M334.6,420.2h-23.8c-3.1,0-5.6,2.5-5.6,5.6v37.1c0,3.1,2.5,5.6,5.6,5.6h23.8c3.1,0,5.6-2.5,5.6-5.6v-37.1
		C340.2,422.7,337.7,420.2,334.6,420.2z M329,457.2h-12.6v-25.9H329V457.2z"/>
	<path class="st0" d="M279.3,420.2h-23.8c-3.1,0-5.6,2.5-5.6,5.6v37.1c0,3.1,2.5,5.6,5.6,5.6h23.8c3.1,0,5.6-2.5,5.6-5.6v-37.1
		C284.9,422.7,282.4,420.2,279.3,420.2z M273.7,457.2H261v-25.9h12.6V457.2z"/>
	<path class="st0" d="M279.3,287h-23.8c-3.1,0-5.6,2.5-5.6,5.6v37.1c0,3.1,2.5,5.6,5.6,5.6h23.8c3.1,0,5.6-2.5,5.6-5.6v-37.1
		C284.9,289.5,282.4,287,279.3,287z M273.7,324.1H261v-25.9h12.6V324.1z"/>
	<path class="st0" d="M574,460.3c0-7.6-2.4-15-7-21.3c-0.1-0.1-0.2-0.2-0.2-0.3c1.3-3.5,1.9-7.1,1.9-10.8c0-6.7-2.2-13.3-6.3-18.8
		c1-2.8,1.5-5.8,1.5-8.7c0-0.5,0-1,0-1.5c-0.8-15.3-14.2-27.3-30.5-27.3c-16.8,0-30.5,12.9-30.5,28.7c0,3,0.5,5.9,1.5,8.7
		c-4.1,5.5-6.3,12.1-6.3,18.8c0,3.7,0.7,7.3,2,10.8c-4.7,6.3-7.2,13.9-7.2,21.6c0,19.2,15.3,35.1,35.1,37.7l0.1,36.6h-45.6l0-296.5
		h13.2c1.6,0,3.2-0.7,4.3-2c1.1-1.3,1.5-2.9,1.3-4.5l-11.2-67.3c-0.4-2.7-2.8-4.7-5.5-4.7h-33.7v-28c0-3.1-2.5-5.6-5.6-5.6h-33.3
		c-3.1,0-5.6,2.5-5.6,5.6v28h-20.7v-28c0-3.1-2.5-5.6-5.6-5.6h-33.3c-3.1,0-5.6,2.5-5.6,5.6v28l-123.9,0c-2.7,0-5.1,2-5.5,4.7
		l-11.2,67.3c-0.3,1.6,0.2,3.3,1.3,4.5c1.1,1.3,2.6,2,4.3,2H219v296.5h-46.6v0l-0.1-36.7c19.7-2.6,34.9-18.5,34.9-37.6
		c0-7.6-2.4-15-7-21.3c-0.1-0.1-0.2-0.2-0.2-0.3c1.3-3.5,1.9-7.1,1.9-10.8c0-6.7-2.2-13.3-6.3-18.8c1-2.8,1.5-5.8,1.5-8.7
		c0-0.5,0-1,0-1.5c-0.8-15.3-14.2-27.3-30.5-27.3c-16.8,0-30.5,12.9-30.5,28.7c0,3,0.5,5.9,1.5,8.7c-4.1,5.5-6.3,12.1-6.3,18.8
		c0,3.7,0.7,7.3,2,10.8c-4.7,6.3-7.2,13.9-7.2,21.6c0,19.2,15.3,35.1,35.1,37.7l0.1,36.6h-29.6c-3.1,0-5.6,2.5-5.6,5.6v28.2
		c0,3.1,2.5,5.6,5.6,5.6h436.8c3.1,0,5.6-2.5,5.6-5.6v-28.2c0-3.1-2.5-5.6-5.6-5.6h-29.2v0l-0.1-36.7
		C558.8,495.3,574,479.5,574,460.3L574,460.3z M137.2,460.3c0-6.3,2.3-12.2,6.7-17c1.5-1.7,1.9-4.2,0.8-6.3c-1.5-2.9-2.2-6-2.2-9.2
		c0-5.1,2-10.1,5.6-14.1c1.6-1.7,1.9-4.2,0.9-6.3c-1.1-2.3-1.7-4.7-1.7-7.2c0-9.7,8.7-17.5,19.3-17.5c10.3,0,18.8,7.3,19.3,16.7
		l0,0.8c0,2.5-0.6,4.9-1.7,7.2c-1,2.1-0.7,4.6,0.9,6.3c3.6,4,5.6,9,5.6,14.1c0,3.2-0.8,6.2-2.2,9.2c-1.1,2.1-0.7,4.6,0.8,6.3
		c0.6,0.7,1.3,1.5,1.8,2.2c3.2,4.4,4.8,9.5,4.8,14.8c0,13-10.2,23.9-23.7,26.3l-0.1-34.3c0-3.1-2.5-5.6-5.6-5.6h0
		c-3.1,0-5.6,2.5-5.6,5.6l0.1,34.3C147.5,484.3,137.2,473.4,137.2,460.3L137.2,460.3z M417.4,137.2h22.1v22.4h-22.1V137.2z
		 M352.1,137.2h22.1v22.4h-22.1V137.2z M221.7,170.8h257.9l9.3,56.1l-276.6,0L221.7,170.8z M230.2,238.1h241v296.5h-19.7l0-69.5
		c0-24.8-20.1-44.9-44.9-44.9c-24.8,0-44.9,20.1-44.9,44.9v69.5l-131.6,0L230.2,238.1z M401,534.6h-28.1l0-69.5
		c0-16.7,12.2-30.5,28.1-33.2L401,534.6z M412.2,431.9c15.9,2.7,28.1,16.5,28.1,33.2v69.5h-28.1V431.9z M562.8,562.8H137.2v-17
		h425.6V562.8z M539,486.6l-0.1-34.3c0-3.1-2.5-5.6-5.6-5.6h0c-3.1,0-5.6,2.5-5.6,5.6l0.1,34.3c-13.6-2.4-23.9-13.3-23.9-26.3
		c0-6.3,2.3-12.2,6.7-17c1.5-1.7,1.9-4.2,0.8-6.3c-1.5-2.9-2.2-6-2.2-9.2c0-5.1,2-10.1,5.6-14.1c1.6-1.7,1.9-4.2,0.9-6.3
		c-1.1-2.3-1.7-4.7-1.7-7.2c0-9.7,8.7-17.5,19.3-17.5c10.3,0,18.8,7.3,19.3,16.7l0,0.8c0,2.5-0.6,4.9-1.7,7.2
		c-1,2.1-0.7,4.6,0.9,6.3c3.6,4,5.6,9,5.6,14.1c0,3.2-0.8,6.2-2.2,9.2c-1.1,2.1-0.7,4.6,0.8,6.3c0.6,0.7,1.3,1.5,1.8,2.2
		c3.2,4.4,4.8,9.5,4.8,14.8C562.8,473.3,552.6,484.2,539,486.6L539,486.6z"/>
</g>
</svg>
