<?xml version="1.0" encoding="utf-8"?>
<!-- Generator: Adobe Illustrator 26.3.1, SVG Export Plug-In . SVG Version: 6.00 Build 0)  -->
<svg version="1.1" id="Layer_1" xmlns="http://www.w3.org/2000/svg" xmlns:xlink="http://www.w3.org/1999/xlink" x="0px" y="0px"
	 viewBox="0 0 700 700" style="enable-background:new 0 0 700 700;" xml:space="preserve">
<style type="text/css">
	.st0{fill:#9CD9D7;}
</style>
<g>
	<path class="st0" d="M568.4,126H242.8c-3.1,0-5.6,2.5-5.6,5.6V178c0,3.1,2.5,5.6,5.6,5.6h6.3v379.2H185v-52.7
		c3.5,1.6,7.2,2.4,10.9,2.4c5.4,0,10.9-1.7,15.7-5.1c9.9-7.2,13.4-19.8,9.3-30.8c9.8-6.5,14.3-18.8,10.6-30.4
		c-3.8-11.6-14.8-18.8-26.4-18.4c-3.1-11.3-13.4-19.4-25.7-19.4c-12.2,0-22.5,8.2-25.7,19.4c-11.7-0.4-22.6,6.8-26.4,18.4
		c-3.8,11.6,0.8,23.9,10.6,30.4c-4.1,11-0.5,23.6,9.3,30.8c8,5.8,18.1,6.5,26.6,2.7l0,52.7h-42.2c-3.1,0-5.6,2.5-5.6,5.6
		s2.5,5.6,5.6,5.6h436.8c3.1,0,5.6-2.5,5.6-5.6s-2.5-5.6-5.6-5.6h-6.3V183.6h6.3c3.1,0,5.6-2.5,5.6-5.6v-46.4
		C574,128.5,571.5,126,568.4,126L568.4,126z M153.8,498.4c-6.7-4.9-8.4-14.2-3.8-21.1c1-1.4,1.2-3.2,0.7-4.8
		c-0.5-1.6-1.8-2.9-3.4-3.5c-7.8-2.9-11.9-11.4-9.3-19.3c2.6-7.9,10.8-12.4,18.9-10.1c1.7,0.5,3.4,0.1,4.8-0.9
		c1.4-1,2.2-2.6,2.3-4.3c0.3-8.3,7.1-14.8,15.4-14.8c8.3,0,15.1,6.5,15.4,14.8c0.1,1.7,0.9,3.3,2.3,4.3c1.4,1,3.1,1.3,4.8,0.9
		c8.1-2.2,16.3,2.2,18.9,10.1c2.6,7.9-1.5,16.4-9.3,19.3c-1.6,0.6-2.8,1.9-3.4,3.5c-0.5,1.6-0.3,3.4,0.7,4.8
		c4.6,6.9,3,16.2-3.8,21.1c-6.7,4.9-16.1,3.6-21.2-2.9c-1.1-1.3-2.7-2.1-4.4-2.1s-3.3,0.8-4.4,2.1
		C169.8,502,160.5,503.3,153.8,498.4L153.8,498.4z M550.9,562.8H260.3V183.6h290.6V562.8z M562.8,172.4H248.4v-35.2h314.4V172.4z"/>
	<path class="st0" d="M464.9,303.8h48.2c3.1,0,5.6-2.5,5.6-5.6v-45.1c0-15.1-12.3-27.3-27.3-27.3h-4.8c-15.1,0-27.3,12.3-27.3,27.3
		v45.1C459.3,301.3,461.8,303.8,464.9,303.8L464.9,303.8z M470.5,253.1c0-8.9,7.2-16.1,16.1-16.1h4.8c8.9,0,16.1,7.2,16.1,16.1v39.5
		h-37L470.5,253.1z"/>
	<path class="st0" d="M381.5,303.8h48.2c3.1,0,5.6-2.5,5.6-5.6v-45.1c0-15.1-12.3-27.3-27.3-27.3h-4.8c-15.1,0-27.3,12.3-27.3,27.3
		v45.1C375.9,301.3,378.4,303.8,381.5,303.8L381.5,303.8z M387.1,253.1c0-8.9,7.2-16.1,16.1-16.1h4.8c8.9,0,16.1,7.2,16.1,16.1v39.5
		h-37L387.1,253.1z"/>
	<path class="st0" d="M298.1,303.8h48.2c3.1,0,5.6-2.5,5.6-5.6v-45.1c0-15.1-12.3-27.3-27.3-27.3h-4.8c-15.1,0-27.3,12.3-27.3,27.3
		v45.1C292.5,301.3,295,303.8,298.1,303.8L298.1,303.8z M303.7,253.1c0-8.9,7.2-16.1,16.1-16.1h4.8c8.9,0,16.1,7.2,16.1,16.1v39.5
		h-37L303.7,253.1z"/>
	<path class="st0" d="M464.9,413h48.2c3.1,0,5.6-2.5,5.6-5.6v-45.1c0-15.1-12.3-27.3-27.3-27.3h-4.8c-15.1,0-27.3,12.3-27.3,27.3
		v45.1C459.3,410.5,461.8,413,464.9,413z M470.5,362.3c0-8.9,7.2-16.1,16.1-16.1h4.8c8.9,0,16.1,7.2,16.1,16.1v39.5h-37L470.5,362.3
		z"/>
	<path class="st0" d="M381.5,413h48.2c3.1,0,5.6-2.5,5.6-5.6v-45.1c0-15.1-12.3-27.3-27.3-27.3h-4.8c-15.1,0-27.3,12.3-27.3,27.3
		v45.1C375.9,410.5,378.4,413,381.5,413z M387.1,362.3c0-8.9,7.2-16.1,16.1-16.1h4.8c8.9,0,16.1,7.2,16.1,16.1v39.5h-37L387.1,362.3
		z"/>
	<path class="st0" d="M298.1,413h48.2c3.1,0,5.6-2.5,5.6-5.6v-45.1c0-15.1-12.3-27.3-27.3-27.3l-4.8,0c-15.1,0-27.3,12.3-27.3,27.3
		v45.1C292.5,410.5,295,413,298.1,413L298.1,413z M303.7,362.3c0-8.9,7.2-16.1,16.1-16.1h4.8c8.9,0,16.1,7.2,16.1,16.1v39.5h-37
		L303.7,362.3z"/>
	<path class="st0" d="M464.9,522.3h48.2c3.1,0,5.6-2.5,5.6-5.6v-45.1c0-15.1-12.3-27.3-27.3-27.3h-4.8c-15.1,0-27.3,12.3-27.3,27.3
		v45.1C459.3,519.8,461.8,522.3,464.9,522.3z M470.5,471.6c0-8.9,7.2-16.1,16.1-16.1h4.8c8.9,0,16.1,7.2,16.1,16.1v39.5h-37
		L470.5,471.6z"/>
	<path class="st0" d="M381.5,522.3h48.2c3.1,0,5.6-2.5,5.6-5.6v-45.1c0-15.1-12.3-27.3-27.3-27.3h-4.8c-15.1,0-27.3,12.3-27.3,27.3
		v45.1C375.9,519.8,378.4,522.3,381.5,522.3z M387.1,471.6c0-8.9,7.2-16.1,16.1-16.1h4.8c8.9,0,16.1,7.2,16.1,16.1v39.5h-37
		L387.1,471.6z"/>
	<path class="st0" d="M298.1,522.3h48.2c3.1,0,5.6-2.5,5.6-5.6v-45.1c0-15.1-12.3-27.3-27.3-27.3h-4.8c-15.1,0-27.3,12.3-27.3,27.3
		v45.1C292.5,519.8,295,522.3,298.1,522.3L298.1,522.3z M303.7,471.6c0-8.9,7.2-16.1,16.1-16.1h4.8c8.9,0,16.1,7.2,16.1,16.1v39.5
		h-37L303.7,471.6z"/>
</g>
</svg>
