<?xml version="1.0" encoding="utf-8"?>
<!-- Generator: Adobe Illustrator 26.3.1, SVG Export Plug-In . SVG Version: 6.00 Build 0)  -->
<svg version="1.1" id="Layer_1" xmlns="http://www.w3.org/2000/svg" xmlns:xlink="http://www.w3.org/1999/xlink" x="0px" y="0px"
	 viewBox="0 0 700 700" style="enable-background:new 0 0 700 700;" xml:space="preserve">
<style type="text/css">
	.st0{fill:#9CD9D7;}
</style>
<g>
	<path class="st0" d="M362.9,363.4v-29.8c0-3.1-2.5-5.6-5.6-5.6h-22.9c-3.1,0-5.6,2.5-5.6,5.6v29.8c0,3.1,2.5,5.6,5.6,5.6h22.9
		C360.4,369,362.9,366.5,362.9,363.4z M351.7,357.8h-11.7v-18.6h11.7V357.8z"/>
	<path class="st0" d="M412.4,363.4v-29.8c0-3.1-2.5-5.6-5.6-5.6h-22.9c-3.1,0-5.6,2.5-5.6,5.6v29.8c0,3.1,2.5,5.6,5.6,5.6h22.9
		C409.9,369,412.4,366.5,412.4,363.4z M401.2,357.8h-11.7v-18.6h11.7V357.8z"/>
	<path class="st0" d="M362.9,440.3v-29.8c0-3.1-2.5-5.6-5.6-5.6h-22.9c-3.1,0-5.6,2.5-5.6,5.6v29.8c0,3.1,2.5,5.6,5.6,5.6h22.9
		C360.4,445.9,362.9,443.4,362.9,440.3z M351.7,434.7h-11.7v-18.6h11.7V434.7z"/>
	<path class="st0" d="M275.2,363.4v-29.8c0-3.1-2.5-5.6-5.6-5.6h-22.9c-3.1,0-5.6,2.5-5.6,5.6v29.8c0,3.1,2.5,5.6,5.6,5.6h22.9
		C272.7,369,275.2,366.5,275.2,363.4z M264,357.8h-11.7v-18.6H264V357.8z"/>
	<path class="st0" d="M275.2,440.3v-29.8c0-3.1-2.5-5.6-5.6-5.6h-22.9c-3.1,0-5.6,2.5-5.6,5.6v29.8c0,3.1,2.5,5.6,5.6,5.6h22.9
		C272.7,445.9,275.2,443.4,275.2,440.3z M264,434.7h-11.7v-18.6H264V434.7z"/>
	<path class="st0" d="M275.2,518.4v-29.8c0-3.1-2.5-5.6-5.6-5.6h-22.9c-3.1,0-5.6,2.5-5.6,5.6v29.8c0,3.1,2.5,5.6,5.6,5.6h22.9
		C272.7,524,275.2,521.5,275.2,518.4z M264,512.8h-11.7v-18.6H264V512.8z"/>
	<path class="st0" d="M406.8,445.9c3.1,0,5.6-2.5,5.6-5.6v-29.8c0-3.1-2.5-5.6-5.6-5.6h-22.9c-3.1,0-5.6,2.5-5.6,5.6v29.8
		c0,3.1,2.5,5.6,5.6,5.6H406.8z M401.2,434.7h-11.7v-18.6h11.7V434.7z"/>
	<path class="st0" d="M362.9,288.1v-29.8c0-3.1-2.5-5.6-5.6-5.6h-22.9c-3.1,0-5.6,2.5-5.6,5.6v29.8c0,3.1,2.5,5.6,5.6,5.6h22.9
		C360.4,293.7,362.9,291.2,362.9,288.1z M351.7,282.5h-11.7v-18.6h11.7V282.5z"/>
	<path class="st0" d="M412.4,288.1v-29.8c0-3.1-2.5-5.6-5.6-5.6h-22.9c-3.1,0-5.6,2.5-5.6,5.6v29.8c0,3.1,2.5,5.6,5.6,5.6h22.9
		C409.9,293.7,412.4,291.2,412.4,288.1z M401.2,282.5h-11.7v-18.6h11.7V282.5z"/>
	<path class="st0" d="M121.3,559.4c0,3.1,2.5,5.6,5.6,5.6h446.1c3.1,0,5.6-2.5,5.6-5.6c0-3.1-2.5-5.6-5.6-5.6h-18.2v-13.3
		c11.3-1.9,19.9-11.7,19.9-23.5c0-8-4-15-10-19.4c2.6-3.2,4.3-7.2,4.3-11.6c0-10.1-8.2-18.3-18.3-18.3s-18.3,8.2-18.3,18.3
		c0,4.4,1.7,8.5,4.3,11.6c-6,4.4-10,11.4-10,19.4c0,10.7,7.1,19.7,16.8,22.8v14.1h-48.6v-41.3c12.6-2.6,22.2-13.8,22.2-27.2
		c0-9.7-5-18.2-12.6-23.2c3.5-3.7,5.7-8.7,5.7-14.3c0-11.5-9.4-20.9-20.9-20.9c-11.5,0-20.9,9.4-20.9,20.9c0,5.5,2.2,10.5,5.7,14.3
		c-7.6,5-12.6,13.5-12.6,23.2c0,13.4,9.5,24.6,22.1,27.2v41.3h-36.4l0-343.6h0.5c3.1,0,5.6-2.5,5.6-5.6v-33.8c0-3.1-2.5-5.6-5.6-5.6
		h-28.5v-24.6c0-3.1-2.5-5.6-5.6-5.6h-29.9c-3.1,0-5.6,2.5-5.6,5.6v24.6l-83.9,0c-3.1,0-5.6,2.5-5.6,5.6v33.8c0,3.1,2.5,5.6,5.6,5.6
		h0.5v53.9h-88.1c-3.1,0-5.6,2.5-5.6,5.6v29.4c0,3.1,2.5,5.6,5.6,5.6h3.3v249.1h-40.7v-22.5c15.6-1.7,27.9-15,27.9-31.1
		c0-11.3-6.1-21.2-15.1-26.7c4.4-4.2,7.1-10.2,7.1-16.7c0-12.9-10.5-23.4-23.3-23.4c-12.9,0-23.3,10.5-23.3,23.4
		c0,6.6,2.7,12.5,7.1,16.7c-9,5.5-15.1,15.4-15.1,26.7c0,14.6,10,26.9,23.6,30.3v23.3l-31.4,0C123.8,553.8,121.3,556.3,121.3,559.4
		L121.3,559.4z M166,468.8c-6.7,0-12.1-5.5-12.1-12.2c0-6.7,5.4-12.2,12.1-12.2c6.7,0,12.1,5.5,12.1,12.2
		C178.2,463.4,172.7,468.8,166,468.8z M166,520.2c-11.1,0-20.1-9-20.1-20.1c0-11.1,9-20.1,20.1-20.1c11.1,0,20.1,9,20.1,20.1
		C186.1,511.2,177.1,520.2,166,520.2z M489.5,457.6c-5.3,0-9.7-4.3-9.7-9.7s4.3-9.7,9.7-9.7c5.3,0,9.7,4.3,9.7,9.7
		C499.2,453.2,494.8,457.6,489.5,457.6z M489.5,501.9c-9.1,0-16.5-7.4-16.5-16.5c0-9.1,7.4-16.5,16.5-16.5c9.1,0,16.6,7.4,16.6,16.5
		C506.1,494.5,498.6,501.9,489.5,501.9z M550.8,492.9c-3.9,0-7.1-3.2-7.1-7.1c0-3.9,3.2-7.1,7.1-7.1c3.9,0,7.1,3.2,7.1,7.1
		C557.9,489.8,554.7,492.9,550.8,492.9z M550.8,529.7c-7,0-12.8-5.7-12.8-12.8c0-7,5.7-12.8,12.8-12.8c7,0,12.8,5.7,12.8,12.8
		C563.6,523.9,557.8,529.7,550.8,529.7z M221.4,304.7H295v249.1l-73.6,0V304.7z M295,275.3v18.2h-82.5v-18.2H295z M408.4,165.2
		h-18.7v-19h18.7V165.2z M442.4,199H300.2v-22.6h142.2L442.4,199L442.4,199z M436.4,553.8H394v-65.2c0-3.1-2.5-5.6-5.6-5.6h-36.8
		c-3.1,0-5.6,2.5-5.6,5.6v65.2h-39.8V210.2h130.1L436.4,553.8z M357.2,494.2h25.6v59.6h-25.6V494.2z"/>
</g>
</svg>
